<?xml version="1.0" encoding="utf-8"?>
<!-- Generator: Adobe Illustrator 26.0.1, SVG Export Plug-In . SVG Version: 6.00 Build 0)  -->
<svg version="1.1" id="图层_2" xmlns="http://www.w3.org/2000/svg" xmlns:xlink="http://www.w3.org/1999/xlink" x="0px" y="0px"
	 viewBox="0 0 505.96 238.85" style="enable-background:new 0 0 505.96 238.85;" xml:space="preserve">
<style type="text/css">
	.st0{fill:#FFFFFF;filter:url(#Adobe_OpacityMaskFilter);}
	.st1{fill:#040000;}
	.st2{mask:url(#c_00000010311795295580771660000006667097733119043993_);}
	.st3{fill:none;stroke:#040000;stroke-width:10;}
</style>
<defs>
	<filter id="Adobe_OpacityMaskFilter" filterUnits="userSpaceOnUse" x="336.09" y="27.84" width="164.56" height="154">
		<feColorMatrix  type="matrix" values="1 0 0 0 0  0 1 0 0 0  0 0 1 0 0  0 0 0 1 0"/>
	</filter>
	<mask id="c">
		<path d="m-1200-1200h2400v2400h-2400z" fill="#fff"/>
		<circle r="925"/>
		<path d="m-306-861 36-185h540l36 185"/>
		<path transform="rotate(120)" d="m-306-861 36-185h540l36 185"/>
		<path transform="rotate(240)" d="m-306-861 36-185h540l36 185"/>
	</mask>
</defs>
<g transform="translate(418.37,109.05) scale(.074)">
	<g mask="url(#c)">
		<circle r="984"/>
		<path id="a" d="m-359-913 36-185h646l36 185"/>
		<use transform="rotate(120)" xlink:href="#a"/>
		<use transform="rotate(240)" xlink:href="#a"/>
	</g>
	<circle r="590.5" fill="none" stroke="#000" stroke-width="119"/>
	<path id="b" d="m-40-752v455h-93.5l133.5 259 133.5-259h-93.5v-455"/>
	<use transform="rotate(120)" xlink:href="#b"/>
	<use transform="rotate(240)" xlink:href="#b"/>
</g>
<g>
	<path d="M6.43,169.59v-33.34h48.06c2.79,0,4.96-0.58,6.48-1.75c1.53-1.17,2.29-2.86,2.29-5.07c0-1.95-0.78-3.88-2.34-5.8
		c-1.56-1.92-3.96-3.88-7.21-5.9L26.9,101.55c-6.11-3.77-10.98-8.63-14.62-14.57C8.64,81.03,6.82,74.9,6.82,68.6
		c0-6.11,1.04-11.65,3.12-16.62c2.08-4.97,5.17-9.21,9.26-12.72c3.83-3.38,8.54-5.77,14.13-7.17c5.59-1.4,14.65-2.1,27.2-2.1h31.88
		v31.97H55.85c-5.07,0-8.56,0.41-10.48,1.22c-1.92,0.81-2.88,2.19-2.88,4.14c0,1.89,0.75,3.75,2.24,5.6c1.49,1.85,3.8,3.72,6.92,5.6
		l26.22,15.6c7.47,4.55,13.16,9.94,17.06,16.18c3.9,6.24,5.85,13.03,5.85,20.37c0,6.3-1.33,12.15-4,17.55
		c-2.67,5.39-6.37,9.78-11.11,13.16c-4.16,2.92-8.84,5.02-14.04,6.29c-5.2,1.27-13.45,1.9-24.76,1.9h-2.14H6.43z"/>
	<path d="M197.05,62.75c-0.91-0.06-1.9-0.11-2.97-0.15c-1.07-0.03-2.68-0.05-4.83-0.05c-15.21,0-26.86,3.2-34.95,9.6
		c-8.09,6.4-12.14,15.58-12.14,27.54c0,12.09,4.05,21.33,12.14,27.73c8.09,6.4,19.74,9.6,34.95,9.6c2.14,0,3.77-0.02,4.87-0.05
		c1.1-0.03,2.08-0.05,2.92-0.05v32.66h-3.61c-12.15,0-22.78-0.97-31.88-2.92c-9.1-1.95-16.77-4.91-23-8.87
		c-10.2-6.56-18.08-14.88-23.64-24.95c-5.56-10.07-8.33-21.12-8.33-33.14c0-12.02,2.76-23.04,8.29-33.05
		c5.52-10.01,13.42-18.29,23.69-24.86c6.24-3.96,13.91-6.92,23-8.87c9.1-1.95,19.72-2.92,31.88-2.92h3.61V62.75z"/>
	<path d="M210.58,169.59V79.71c0-15.66,4.68-28.28,14.04-37.87c9.36-9.58,21.7-14.38,37.04-14.38c14.1,0,25.91,4.7,35.43,14.09
		c9.52,9.39,14.28,20.94,14.28,34.65c0,14.62-5.12,26.38-15.35,35.29c-10.24,8.9-23.87,13.35-40.89,13.35h-3.61V91.51h5.36
		c5.91,0,10.56-1.41,13.94-4.24c3.38-2.83,5.07-6.68,5.07-11.55c0-4.29-1.41-7.85-4.24-10.67c-2.83-2.83-6.42-4.24-10.77-4.24
		c-4.87,0-8.68,1.64-11.4,4.92c-2.73,3.28-4.09,7.88-4.09,13.79v90.07H210.58z"/>
</g>
<g>
	<path d="M6.18,227.49v-8.05h11.6c0.67,0,1.2-0.14,1.56-0.42c0.37-0.28,0.55-0.69,0.55-1.22c0-0.47-0.19-0.94-0.56-1.4
		c-0.38-0.46-0.96-0.94-1.74-1.42l-6.47-3.91c-1.47-0.91-2.65-2.08-3.53-3.52c-0.88-1.44-1.32-2.91-1.32-4.44
		c0-1.47,0.25-2.81,0.75-4.01c0.5-1.2,1.25-2.22,2.24-3.07c0.93-0.82,2.06-1.39,3.41-1.73c1.35-0.34,3.54-0.51,6.56-0.51h7.69v7.72
		h-8.82c-1.22,0-2.07,0.1-2.53,0.29c-0.46,0.2-0.69,0.53-0.69,1c0,0.46,0.18,0.91,0.54,1.35c0.36,0.45,0.92,0.9,1.67,1.35l6.33,3.76
		c1.8,1.1,3.18,2.4,4.12,3.91c0.94,1.51,1.41,3.15,1.41,4.92c0,1.52-0.32,2.93-0.96,4.24c-0.64,1.3-1.54,2.36-2.68,3.18
		c-1,0.71-2.13,1.21-3.39,1.52c-1.26,0.31-3.25,0.46-5.98,0.46h-0.52H6.18z"/>
	<path d="M56.48,218.62c-1.26,2.96-3.01,5.26-5.27,6.87c-2.26,1.62-4.82,2.42-7.69,2.42c-1.58,0-3.11-0.31-4.58-0.93
		c-1.47-0.62-2.76-1.51-3.89-2.67c-1.18-1.19-2.07-2.53-2.67-4.02c-0.6-1.49-0.91-3.07-0.91-4.75c0-1.68,0.3-3.26,0.91-4.75
		c0.6-1.49,1.49-2.83,2.67-4.02c1.13-1.15,2.42-2.02,3.87-2.64c1.45-0.61,2.98-0.92,4.6-0.92c2.42,0,4.59,0.64,6.52,1.92
		c1.93,1.28,3.51,3.14,4.75,5.59l-11.55,7.86l-2.89-4.38l6.26-4.35c-0.41-0.27-0.83-0.47-1.27-0.6c-0.44-0.13-0.89-0.2-1.36-0.2
		c-1.47,0-2.73,0.56-3.76,1.68s-1.55,2.5-1.55,4.13c0,1.66,0.51,3.06,1.53,4.19c1.02,1.13,2.27,1.69,3.74,1.69
		c1.38,0,2.66-0.42,3.85-1.25c1.18-0.83,2.19-2.04,3.02-3.62L56.48,218.62z"/>
	<path d="M74.66,210.9h-3.27c-1.79,0-3.21,0.43-4.26,1.28c-1.05,0.86-1.58,1.99-1.58,3.4c0,1.41,0.53,2.54,1.58,3.38
		c1.05,0.84,2.47,1.26,4.26,1.26h3.27v7.27h-2.8c-4.24,0-7.62-1.09-10.16-3.28c-2.54-2.19-3.81-5.08-3.81-8.67
		c0-3.58,1.27-6.45,3.81-8.64c2.54-2.18,5.93-3.27,10.16-3.27h2.8V210.9z"/>
	<path d="M84.87,203.63v13.29c0,1.11,0.33,2.02,0.98,2.72s1.49,1.05,2.51,1.05s1.85-0.35,2.49-1.05s0.96-1.6,0.96-2.72v-13.29h7.48
		v12.09c0,3.72-1,6.68-3,8.88c-2,2.2-4.65,3.31-7.94,3.31c-1.8,0-3.47-0.39-5.01-1.16c-1.54-0.78-2.84-1.89-3.91-3.35
		c-0.71-0.99-1.22-2.08-1.54-3.27c-0.32-1.19-0.48-2.66-0.48-4.4v-12.09H84.87z"/>
	<path d="M103.24,227.49v-23.86h6.89v3.58c0.75-1.24,1.73-2.15,2.92-2.72c1.19-0.57,2.71-0.86,4.56-0.86h0.89v7.22h-0.33
		c-2.71,0-4.67,0.6-5.87,1.8c-1.2,1.2-1.8,3.16-1.8,5.87v8.96H103.24z"/>
	<path d="M145.54,218.62c-1.26,2.96-3.01,5.26-5.27,6.87c-2.26,1.62-4.82,2.42-7.69,2.42c-1.58,0-3.11-0.31-4.58-0.93
		c-1.47-0.62-2.76-1.51-3.89-2.67c-1.18-1.19-2.07-2.53-2.67-4.02c-0.6-1.49-0.91-3.07-0.91-4.75c0-1.68,0.3-3.26,0.91-4.75
		c0.6-1.49,1.49-2.83,2.67-4.02c1.13-1.15,2.42-2.02,3.87-2.64c1.45-0.61,2.98-0.92,4.6-0.92c2.42,0,4.59,0.64,6.52,1.92
		c1.93,1.28,3.51,3.14,4.75,5.59l-11.55,7.86l-2.89-4.38l6.26-4.35c-0.41-0.27-0.83-0.47-1.27-0.6c-0.44-0.13-0.89-0.2-1.36-0.2
		c-1.47,0-2.73,0.56-3.76,1.68s-1.55,2.5-1.55,4.13c0,1.66,0.51,3.06,1.53,4.19c1.02,1.13,2.27,1.69,3.74,1.69
		c1.38,0,2.66-0.42,3.85-1.25c1.18-0.83,2.19-2.04,3.02-3.62L145.54,218.62z"/>
	<path d="M147.72,223.35c0-1.36,0.46-2.51,1.39-3.44c0.93-0.93,2.07-1.39,3.44-1.39s2.51,0.46,3.44,1.39
		c0.93,0.93,1.39,2.07,1.39,3.44c0,1.32-0.47,2.44-1.41,3.38c-0.94,0.93-2.08,1.4-3.41,1.4c-1.33,0-2.47-0.47-3.41-1.4
		C148.19,225.79,147.72,224.67,147.72,223.35z"/>
	<path d="M195.64,201.7c-0.22-0.02-0.46-0.03-0.72-0.04s-0.65-0.01-1.17-0.01c-3.67,0-6.48,0.77-8.44,2.32
		c-1.95,1.54-2.93,3.76-2.93,6.65c0,2.92,0.98,5.15,2.93,6.69c1.95,1.55,4.76,2.32,8.44,2.32c0.52,0,0.91,0,1.18-0.01
		c0.27-0.01,0.5-0.01,0.71-0.01v7.88h-0.87c-2.93,0-5.5-0.24-7.69-0.71c-2.2-0.47-4.05-1.18-5.55-2.14
		c-2.46-1.58-4.36-3.59-5.71-6.02c-1.34-2.43-2.01-5.1-2.01-8s0.67-5.56,2-7.98c1.33-2.42,3.24-4.42,5.72-6
		c1.51-0.96,3.36-1.67,5.55-2.14c2.2-0.47,4.76-0.71,7.69-0.71h0.87V201.7z"/>
	<path d="M197.89,215.54c0-1.66,0.3-3.24,0.91-4.72c0.6-1.48,1.49-2.83,2.67-4.06c1.15-1.16,2.44-2.05,3.89-2.67
		c1.45-0.62,2.98-0.93,4.58-0.93c1.63,0,3.18,0.31,4.65,0.93s2.76,1.51,3.89,2.67c1.15,1.18,2.02,2.51,2.61,4.01
		c0.6,1.5,0.89,3.09,0.89,4.76c0,1.68-0.3,3.27-0.89,4.76s-1.47,2.83-2.61,4.01c-1.13,1.16-2.43,2.05-3.89,2.67
		s-3.02,0.93-4.65,0.93c-1.6,0-3.13-0.31-4.58-0.93c-1.45-0.62-2.75-1.51-3.89-2.67c-1.18-1.22-2.07-2.58-2.67-4.06
		C198.19,218.77,197.89,217.2,197.89,215.54z M205.61,215.49c0,1.35,0.42,2.5,1.27,3.45c0.85,0.95,1.87,1.42,3.06,1.42
		c1.21,0,2.24-0.47,3.11-1.42c0.86-0.95,1.29-2.1,1.29-3.45s-0.43-2.5-1.29-3.45c-0.86-0.95-1.9-1.42-3.11-1.42
		c-1.19,0-2.21,0.47-3.06,1.42C206.03,212.99,205.61,214.14,205.61,215.49z"/>
	<path d="M239.32,227.49V214.2c0-1.11-0.32-2.02-0.96-2.72s-1.47-1.05-2.49-1.05s-1.85,0.35-2.51,1.05s-0.98,1.6-0.98,2.72v13.29
		h-7.46V215.4c0-3.73,1-6.71,3-8.92c2-2.21,4.65-3.32,7.94-3.32c1.79,0,3.46,0.4,5.02,1.19s2.87,1.92,3.94,3.38
		c0.69,0.97,1.19,2.05,1.51,3.22c0.31,1.18,0.47,2.66,0.47,4.45v12.09H239.32z"/>
	<path d="M250.61,197.8h7.48v5.83H264v6.99h-5.91v7.53c0,0.85,0.18,1.44,0.55,1.79c0.37,0.35,1.02,0.52,1.94,0.52H264v7.04h-2.78
		c-3.64,0-6.32-0.8-8.04-2.39c-1.72-1.59-2.58-4.09-2.58-7.49V197.8z"/>
	<path d="M282.91,227.49v-11.41c0-1.76-0.38-3.08-1.15-3.98c-0.77-0.89-1.91-1.34-3.44-1.34c-1.26,0-2.27,0.44-3.06,1.31
		c-0.78,0.87-1.18,2.01-1.18,3.42c0,1.46,0.41,2.62,1.24,3.48c0.82,0.86,1.95,1.29,3.38,1.29c0.34,0,0.74-0.05,1.2-0.14
		c0.46-0.09,1.05-0.26,1.79-0.49v7.81c-0.61,0.12-1.19,0.22-1.74,0.28c-0.55,0.06-1.06,0.09-1.53,0.09c-3.48,0-6.35-1.16-8.61-3.48
		c-2.26-2.32-3.39-5.27-3.39-8.85c0-3.58,1.13-6.53,3.39-8.85c2.26-2.32,5.13-3.48,8.61-3.48c2.4,0,4.57,0.62,6.52,1.85
		c1.94,1.23,3.4,2.91,4.38,5.05c0.38,0.82,0.65,1.72,0.81,2.72c0.16,1,0.25,2.58,0.25,4.74v9.98H282.91z"/>
	<path d="M293.7,197.18c0-1.21,0.43-2.24,1.28-3.08c0.85-0.85,1.89-1.27,3.09-1.27c1.21,0,2.24,0.42,3.09,1.27
		c0.85,0.85,1.28,1.88,1.28,3.08c0,1.21-0.43,2.24-1.28,3.09c-0.86,0.85-1.89,1.28-3.09,1.28c-1.21,0-2.24-0.43-3.09-1.28
		S293.7,198.39,293.7,197.18z M294.27,227.49v-23.86h7.62v23.86H294.27z"/>
	<path d="M320.19,227.49V214.2c0-1.11-0.32-2.02-0.96-2.72s-1.47-1.05-2.49-1.05s-1.85,0.35-2.51,1.05s-0.98,1.6-0.98,2.72v13.29
		h-7.46V215.4c0-3.73,1-6.71,3-8.92c2-2.21,4.65-3.32,7.94-3.32c1.79,0,3.46,0.4,5.02,1.19s2.87,1.92,3.94,3.38
		c0.69,0.97,1.19,2.05,1.51,3.22c0.31,1.18,0.47,2.66,0.47,4.45v12.09H320.19z"/>
	<path d="M331.38,223.35c0-1.36,0.46-2.51,1.39-3.44c0.93-0.93,2.07-1.39,3.44-1.39s2.51,0.46,3.44,1.39
		c0.93,0.93,1.39,2.07,1.39,3.44c0,1.32-0.47,2.44-1.41,3.38c-0.94,0.93-2.08,1.4-3.41,1.4c-1.33,0-2.47-0.47-3.41-1.4
		C331.85,225.79,331.38,224.67,331.38,223.35z"/>
	<path d="M358.34,227.49V205.8c0-3.78,1.13-6.83,3.39-9.14c2.26-2.31,5.24-3.47,8.94-3.47c3.4,0,6.25,1.13,8.55,3.4
		c2.3,2.27,3.45,5.06,3.45,8.36c0,3.53-1.24,6.37-3.71,8.52c-2.47,2.15-5.76,3.22-9.87,3.22h-0.87v-8.05h1.29
		c1.43,0,2.55-0.34,3.36-1.02c0.82-0.68,1.22-1.61,1.22-2.79c0-1.04-0.34-1.89-1.02-2.58c-0.68-0.68-1.55-1.02-2.6-1.02
		c-1.18,0-2.09,0.4-2.75,1.19c-0.66,0.79-0.99,1.9-0.99,3.33v21.74H358.34z"/>
	<path d="M384.92,227.49v-23.86h6.89v3.58c0.75-1.24,1.73-2.15,2.92-2.72c1.19-0.57,2.71-0.86,4.56-0.86h0.89v7.22h-0.33
		c-2.71,0-4.67,0.6-5.87,1.8c-1.2,1.2-1.8,3.16-1.8,5.87v8.96H384.92z"/>
	<path d="M402.21,215.54c0-1.66,0.3-3.24,0.91-4.72c0.6-1.48,1.49-2.83,2.67-4.06c1.15-1.16,2.44-2.05,3.89-2.67
		c1.45-0.62,2.98-0.93,4.58-0.93c1.63,0,3.18,0.31,4.65,0.93s2.76,1.51,3.89,2.67c1.15,1.18,2.02,2.51,2.61,4.01
		c0.6,1.5,0.89,3.09,0.89,4.76c0,1.68-0.3,3.27-0.89,4.76s-1.47,2.83-2.61,4.01c-1.13,1.16-2.43,2.05-3.89,2.67
		s-3.02,0.93-4.65,0.93c-1.6,0-3.13-0.31-4.58-0.93c-1.45-0.62-2.75-1.51-3.89-2.67c-1.18-1.22-2.07-2.58-2.67-4.06
		C402.51,218.77,402.21,217.2,402.21,215.54z M409.92,215.49c0,1.35,0.42,2.5,1.27,3.45c0.85,0.95,1.87,1.42,3.06,1.42
		c1.21,0,2.24-0.47,3.11-1.42c0.86-0.95,1.29-2.1,1.29-3.45s-0.43-2.5-1.29-3.45c-0.86-0.95-1.9-1.42-3.11-1.42
		c-1.19,0-2.21,0.47-3.06,1.42C410.35,212.99,409.92,214.14,409.92,215.49z"/>
	<path d="M429.38,197.8h7.48v5.83h5.91v6.99h-5.91v7.53c0,0.85,0.18,1.44,0.55,1.79c0.37,0.35,1.02,0.52,1.94,0.52h3.41v7.04h-2.78
		c-3.64,0-6.32-0.8-8.04-2.39c-1.72-1.59-2.58-4.09-2.58-7.49V197.8z"/>
	<path d="M470.24,218.62c-1.26,2.96-3.01,5.26-5.27,6.87c-2.26,1.62-4.82,2.42-7.69,2.42c-1.58,0-3.11-0.31-4.58-0.93
		c-1.47-0.62-2.76-1.51-3.89-2.67c-1.18-1.19-2.07-2.53-2.67-4.02c-0.6-1.49-0.91-3.07-0.91-4.75c0-1.68,0.3-3.26,0.91-4.75
		c0.6-1.49,1.49-2.83,2.67-4.02c1.13-1.15,2.42-2.02,3.87-2.64c1.45-0.61,2.98-0.92,4.6-0.92c2.42,0,4.59,0.64,6.52,1.92
		c1.93,1.28,3.51,3.14,4.75,5.59l-11.55,7.86l-2.89-4.38l6.26-4.35c-0.41-0.27-0.83-0.47-1.27-0.6c-0.44-0.13-0.89-0.2-1.36-0.2
		c-1.47,0-2.73,0.56-3.76,1.68s-1.55,2.5-1.55,4.13c0,1.66,0.51,3.06,1.53,4.19c1.02,1.13,2.27,1.69,3.74,1.69
		c1.38,0,2.66-0.42,3.85-1.25c1.18-0.83,2.19-2.04,3.02-3.62L470.24,218.62z"/>
	<path d="M488.42,210.9h-3.27c-1.79,0-3.21,0.43-4.26,1.28c-1.05,0.86-1.58,1.99-1.58,3.4c0,1.41,0.53,2.54,1.58,3.38
		c1.05,0.84,2.47,1.26,4.26,1.26h3.27v7.27h-2.8c-4.24,0-7.62-1.09-10.16-3.28c-2.54-2.19-3.81-5.08-3.81-8.67
		c0-3.58,1.27-6.45,3.81-8.64c2.54-2.18,5.93-3.27,10.16-3.27h2.8V210.9z"/>
	<path d="M491.31,197.8h7.48v5.83h5.91v6.99h-5.91v7.53c0,0.85,0.18,1.44,0.55,1.79c0.37,0.35,1.02,0.52,1.94,0.52h3.41v7.04h-2.78
		c-3.64,0-6.32-0.8-8.04-2.39c-1.72-1.59-2.58-4.09-2.58-7.49V197.8z"/>
</g>
</svg>
